# Blender 4.2.0
# www.blender.org
mtllib door.mtl
g Cube.003_Cube.009
v -0.062500 0.000000 0.437500
v -0.062500 1.000000 0.437500
v 0.062500 0.000000 0.437500
v 0.062500 1.000000 0.437500
v -0.062500 0.000000 0.000000
v -0.062500 1.000000 0.000000
v 0.062500 0.000000 0.000000
v 0.062500 1.000000 0.000000
vn -0.0000 -0.0000 1.0000
vn -0.0000 1.0000 -0.0000
vn 1.0000 -0.0000 -0.0000
vn -1.0000 -0.0000 -0.0000
vn -0.0000 -1.0000 -0.0000
vn -0.0000 -0.0000 -1.0000
vt 0.250000 0.750000
vt 0.187500 0.750000
vt 0.187500 0.250000
vt 0.250000 0.250000
vt 0.500000 0.812500
vt 0.250000 0.812500
vt 0.500000 0.750000
vt 0.500000 0.250000
vt 0.562500 0.250000
vt 0.812500 0.250000
vt 0.812500 0.750000
vt 0.562500 0.750000
vt 0.500000 0.187500
vt 0.250000 0.187500
s 0
f 4/1/1 2/2/1 1/3/1 3/4/1
f 6/5/2 2/6/2 4/1/2 8/7/2
f 7/8/3 8/7/3 4/1/3 3/4/3
f 5/9/4 1/10/4 2/11/4 6/12/4
f 5/13/5 7/8/5 3/4/5 1/14/5
f 6/12/6 8/7/6 7/8/6 5/9/6
g Cube.008_Cube.014
v 0.062500 0.000000 -0.437500
v 0.062500 1.000000 -0.437500
v -0.062500 0.000000 -0.437500
v -0.062500 1.000000 -0.437500
v 0.062500 0.000000 -0.000000
v 0.062500 1.000000 -0.000000
v -0.062500 0.000000 0.000000
v -0.062500 1.000000 0.000000
vn -0.0000 -0.0000 -1.0000
vn -0.0000 1.0000 -0.0000
vn -1.0000 -0.0000 -0.0000
vn 1.0000 -0.0000 -0.0000
vn -0.0000 -1.0000 -0.0000
vn -0.0000 -0.0000 1.0000
vt 0.250000 0.750000
vt 0.187500 0.750000
vt 0.187500 0.250000
vt 0.250000 0.250000
vt 0.500000 0.812500
vt 0.250000 0.812500
vt 0.500000 0.750000
vt 0.500000 0.250000
vt 0.562500 0.250000
vt 0.812500 0.250000
vt 0.812500 0.750000
vt 0.562500 0.750000
vt 0.500000 0.187500
vt 0.250000 0.187500
s 0
f 12/15/7 10/16/7 9/17/7 11/18/7
f 14/19/8 10/20/8 12/15/8 16/21/8
f 15/22/9 16/21/9 12/15/9 11/18/9
f 13/23/10 9/24/10 10/25/10 14/26/10
f 13/27/11 15/22/11 11/18/11 9/28/11
f 14/26/12 16/21/12 15/22/12 13/23/12
